<svg xmlns="http://www.w3.org/2000/svg" xmlns:xlink="http://www.w3.org/1999/xlink" viewBox="0 0 53.86 42.52"><defs><style>.cls-1{fill:none;}.cls-2{clip-path:url(#clip-path);}.cls-3{fill:#231f20;}</style><clipPath id="clip-path" transform="translate(-36.85 -35.43)"><rect class="cls-1" width="127.56" height="113.39"/></clipPath></defs><title>Fichier 2</title><g id="Calque_2" data-name="Calque 2"><g id="Calque_1-2" data-name="Calque 1"><g class="cls-2"><path class="cls-3" d="M90.61,63.05h0a.67.67,0,0,0,.09-.34A.71.71,0,0,0,90,62H79.91L69,35.81h0a.71.71,0,0,0-1.17-.11L48.07,62H37.56a.71.71,0,0,0-.71.71.6.6,0,0,0,.1.35L44.5,77.66l0,.06h0a.74.74,0,0,0,.52.22H81.83a.74.74,0,0,0,.55-.26v0l8.22-14.62Z" transform="translate(-36.85 -35.43)"/></g></g></g></svg>