<svg xmlns="http://www.w3.org/2000/svg" xmlns:xlink="http://www.w3.org/1999/xlink" viewBox="0 0 1169.34 1191.13"><defs><style>.cls-1{fill:none;}.cls-2{clip-path:url(#clip-path);}</style><clipPath id="clip-path" transform="translate(-2.14 -2.36)"><rect class="cls-1" width="1173" height="1195"/></clipPath></defs><title>Fichier 1</title><g id="Calque_2" data-name="Calque 2"><g id="Calque_1-2" data-name="Calque 1"><g class="cls-2"><path d="M601.84,3.07c71.38-5.35,142.81,19.8,194.42,69.66,36.37,36.2,64.28,86,53.36,138.78-2.44,20.79-13,39.18-19.54,58.76-3.41,12.05-15.35,30.37,0,38.71,13.66,9.84,30.71,11.79,46.45,16.55,16.57,5.38,32.48,12.53,49.17,17.58,69.45,24.8,136.63,58.78,191.56,108.63,47.33,48.86,79.37,108,27.94,167.48-170.51,184.9-212.44,44.09-98.67,273.29q40.7,78.5,80.62,157.3c15.64,31.18,33.75,62.56,38.34,97.69-.18,14.38-8.89,27.41-19.26,36.74-22.09,12.56-49.25,5.27-73.46,7.58a80.09,80.09,0,0,1-24.29-.29c-14.29.58-28.74,3.42-43,1-80.2-1.13-160.57.68-240.94-4.21-34.5-2.35-40.49-24.09-57.66-48.18-26.59-31.65-51.27-64.82-76.44-97.59-7.23-9.87-18.12-15.85-27.27-23.67-4.87-3.66-10-8.43-16.62-7.35-11.31,4.34-16.82,15.89-25.3,23.75-14.89,13.39-25.63,30.43-38.07,46-22.82,22.62-39.62,50.33-59.76,75.21-16.95,24-23.89,26.32-53.28,28.49-117.91,2.25-235.81,8.11-353.65,2.57-26,2.49-52.79-10.9-53-40-.18-24,13.69-45.47,23.34-66.7,16.92-23.8,25.26-52.15,41.93-76.06,8.92-15.79,14-33.57,24.35-48.57C124,895.26,152,833.11,183.49,772.5c17.14-38.7-38.81-47.73-57.24-70.74-26.75-21.91-53.16-44.2-78.91-67.12-53-42.5-59.53-94.27-18.89-149.17,29.68-42.27,79.39-64.17,124-87a708.94,708.94,0,0,1,188-67c42.26-18.61-25.36-78.38-12-140.94,1.39-45.5,25.45-87.3,60.38-115.65,58.36-52,136-72.58,213-71.78" transform="translate(-2.14 -2.36)"/></g></g></g></svg>